<svg width="101" height="28" viewBox="0 0 101 28" fill="none" xmlns="http://www.w3.org/2000/svg">
<path d="M98.8077 22.5823H87.668V11.6583C87.668 11.2789 87.8215 10.9149 88.0949 10.6466C88.3683 10.3783 88.7391 10.2275 89.1257 10.2275H100.265V21.154C100.265 21.3418 100.228 21.5277 100.154 21.7012C100.081 21.8746 99.9737 22.0322 99.8383 22.1648C99.7029 22.2975 99.5422 22.4026 99.3653 22.4743C99.1885 22.5459 98.999 22.5826 98.8077 22.5823Z" fill="#FFB701"/>
<path d="M91.3055 17.9163L90.7913 19.4303H89.5059L91.6963 13.3943H93.2877L95.4986 19.4303H94.1618L93.6142 17.9163C93.5935 17.8595 93.5555 17.8104 93.5054 17.7756C93.4552 17.7408 93.3953 17.7221 93.3339 17.722H91.5857C91.5243 17.7221 91.4644 17.7408 91.4143 17.7756C91.3641 17.8104 91.3261 17.8595 91.3055 17.9163ZM93.1051 16.8842C93.1296 16.8844 93.1537 16.8788 93.1755 16.8679C93.1972 16.8569 93.216 16.841 93.2301 16.8214C93.2443 16.8018 93.2534 16.7792 93.2567 16.7554C93.26 16.7316 93.2574 16.7074 93.2491 16.6848L92.794 15.3928C92.6604 15.0244 92.5498 14.6131 92.4495 14.2649H92.429C92.3261 14.6131 92.2259 15.0219 92.1025 15.3928L91.6474 16.6798C91.6391 16.7024 91.6365 16.7266 91.6398 16.7504C91.6431 16.7741 91.6522 16.7968 91.6664 16.8164C91.6805 16.8359 91.6993 16.8519 91.721 16.8628C91.7428 16.8737 91.7669 16.8793 91.7914 16.8791L93.1051 16.8842Z" fill="white"/>
<path d="M97.6945 13.8185V19.4306H96.9232C96.798 19.4299 96.6781 19.3808 96.5895 19.2939C96.5009 19.2069 96.4509 19.0892 96.4502 18.9663V13.387H97.2575C97.3151 13.387 97.3721 13.3981 97.4253 13.4199C97.4785 13.4416 97.5268 13.4734 97.5674 13.5135C97.608 13.5536 97.6402 13.6012 97.662 13.6535C97.6838 13.7059 97.6949 13.7619 97.6945 13.8185Z" fill="white"/>
<path d="M75.1113 21.2294L78.8623 16.7529L75.2373 11.5798H78.1116C78.1983 11.5802 78.2837 11.6013 78.3603 11.6414C78.4369 11.6814 78.5024 11.7391 78.5512 11.8095L80.5539 14.7215L83.04 11.7691C83.0896 11.7098 83.152 11.662 83.2227 11.6293C83.2934 11.5965 83.3706 11.5797 83.4488 11.5798H84.6057L81.2404 15.6451L85.197 21.232H82.3073C82.2213 21.2324 82.1365 21.2121 82.0603 21.173C81.9841 21.1338 81.9189 21.077 81.8702 21.0074L79.5256 17.6638L76.677 21.0427C76.6269 21.1013 76.5644 21.1484 76.4938 21.1807C76.4231 21.2129 76.3461 21.2296 76.2682 21.2294H75.1113Z" fill="white"/>
<path d="M84.3568 11.522H85.4649L77.5131 20.9823C77.4354 21.0764 77.3375 21.1525 77.2264 21.2053C77.1153 21.2581 76.9938 21.2862 76.8704 21.2877H75.0039L82.9737 11.8248C83.0531 11.7303 83.1529 11.6541 83.2657 11.6018C83.3786 11.5494 83.5019 11.5222 83.6267 11.522H84.3568Z" fill="white"/>
<path d="M38.6762 16.6091H30.8992C30.825 16.3696 30.7911 16.1199 30.7989 15.8697L30.8324 15.6426H38.1697C38.3061 15.6426 38.4369 15.6958 38.5333 15.7904C38.6297 15.885 38.6839 16.0134 38.6839 16.1473L38.6762 16.6091Z" fill="white"/>
<path d="M38.7722 16.7051H30.8358L30.8101 16.642C30.7312 16.3922 30.6947 16.1313 30.7021 15.8699L30.7484 15.5469H38.1706C38.332 15.5495 38.4857 15.6147 38.5984 15.7281C38.7111 15.8415 38.7735 15.9941 38.7722 16.1525V16.7051ZM30.972 16.5159H38.5793V16.15C38.5804 16.0963 38.5706 16.0429 38.5506 15.9929C38.5306 15.943 38.5008 15.8973 38.4628 15.8587C38.4249 15.82 38.3795 15.7891 38.3294 15.7676C38.2792 15.7461 38.2253 15.7346 38.1706 15.7336H30.9155L30.8949 15.88C30.8917 16.0944 30.9177 16.3082 30.972 16.5159Z" fill="white"/>
<path d="M37.3316 19.4505C37.1758 19.2802 36.9601 19.174 36.7278 19.1534C36.4955 19.1328 36.2639 19.1993 36.0795 19.3395C35.3969 19.8445 34.5665 20.1197 33.7117 20.1243C32.1949 20.1243 30.9557 18.3856 30.9557 16.2432C30.9557 14.1008 32.1872 12.6928 33.704 12.6928C35.2209 12.6928 36.4549 14.0554 36.4549 16.1978C36.4549 16.3416 36.4549 16.4703 36.4395 16.6091H38.6556C38.869 13.846 36.5706 11.5396 33.704 11.5396C30.9634 11.5396 28.7422 13.6491 28.7422 16.2508C28.7584 17.5338 29.2876 18.7592 30.2158 19.6627C31.144 20.5662 32.3968 21.0754 33.704 21.0806C35.2466 21.0806 36.2749 20.6189 37.3624 19.4959L37.3316 19.4505Z" fill="white"/>
<path d="M33.7119 21.1715C32.381 21.1592 31.1075 20.6375 30.1625 19.7175C29.2176 18.7976 28.6757 17.5519 28.6523 16.2457C28.6523 13.5961 30.9225 11.4512 33.7119 11.4512C34.4182 11.4491 35.1174 11.5898 35.7658 11.8646C36.4142 12.1395 36.9981 12.5425 37.4808 13.0485C37.9367 13.5234 38.2866 14.0866 38.5079 14.7019C38.7293 15.3172 38.8173 15.9711 38.7663 16.6217V16.6545L38.7097 16.705H38.666H36.3522V16.6015C36.3522 16.4653 36.3702 16.3492 36.3702 16.1978C36.3702 14.2219 35.2544 12.7861 33.7144 12.7861C32.1745 12.7861 31.0613 14.2396 31.0613 16.2432C31.0613 18.3301 32.2567 20.0283 33.7222 20.0283C34.556 20.0251 35.3669 19.7598 36.036 19.2713C36.2404 19.1192 36.4953 19.0476 36.7507 19.0705C37.0061 19.0933 37.2436 19.2091 37.4165 19.395L37.5142 19.5009L37.4525 19.564C36.3393 20.7046 35.2596 21.1715 33.7119 21.1715ZM33.7119 11.6304C31.0304 11.6304 28.8452 13.6996 28.8452 16.2457C28.8672 17.5021 29.3883 18.7004 30.2974 19.5851C31.2065 20.4699 32.4317 20.9712 33.7119 20.9822C35.1927 20.9822 36.1877 20.5633 37.2392 19.4908C37.0976 19.3472 36.9069 19.26 36.7038 19.246C36.5006 19.2321 36.2994 19.2923 36.1388 19.4151C35.4374 19.9293 34.5872 20.2104 33.7119 20.2176C32.1385 20.2176 30.8582 18.4335 30.8582 16.2432C30.8582 14.1311 32.0562 12.5968 33.7042 12.5968C35.3521 12.5968 36.5527 14.1109 36.5527 16.1978C36.5527 16.3012 36.5527 16.3996 36.5527 16.5157H38.5632C38.6017 15.9046 38.5123 15.2922 38.3005 14.7163C38.0887 14.1404 37.759 13.6132 37.3317 13.1671C36.8677 12.6814 36.307 12.2943 35.6843 12.0299C35.0616 11.7656 34.3903 11.6296 33.7119 11.6304Z" fill="white"/>
<path d="M61.0281 3.32568C58.5422 3.32568 56.1121 4.04924 54.0451 5.40485C51.9781 6.76047 50.3671 8.68725 49.4158 10.9416C48.4644 13.1959 48.2155 15.6764 48.7005 18.0696C49.1855 20.4627 50.3826 22.661 52.1404 24.3864C53.8982 26.1117 56.1378 27.2867 58.576 27.7627C61.0142 28.2388 63.5414 27.9945 65.8381 27.0607C68.1348 26.1269 70.0978 24.5457 71.479 22.5168C72.8601 20.488 73.5972 18.1028 73.5972 15.6627C73.5972 12.3907 72.273 9.25277 69.9158 6.93912C67.5587 4.62548 64.3617 3.32568 61.0281 3.32568ZM61.0281 26.9803C58.7476 26.9803 56.5183 26.3166 54.6221 25.073C52.7259 23.8294 51.2481 22.0618 50.3753 19.9938C49.5026 17.9258 49.2743 15.6502 49.7192 13.4548C50.1641 11.2594 51.2623 9.24279 52.8748 7.66C54.4874 6.0772 56.5419 4.99931 58.7786 4.56261C61.0153 4.12592 63.3337 4.35005 65.4406 5.20665C67.5476 6.06325 69.3484 7.51386 70.6154 9.37502C71.8824 11.2362 72.5586 13.4243 72.5586 15.6627C72.5586 17.149 72.2604 18.6207 71.6809 19.9938C71.1014 21.3669 70.2521 22.6146 69.1814 23.6655C68.1107 24.7164 66.8396 25.5501 65.4406 26.1188C64.0417 26.6876 62.5423 26.9803 61.0281 26.9803Z" fill="white"/>
<path d="M50.3406 0C52.3973 3.39906 55.6855 5.15537 59.1357 6.72495C61.9637 8.00937 64.5988 9.56633 66.6144 11.9838C69.4424 15.3677 69.8203 20.2455 67.3857 23.912C66.0308 25.951 63.9098 26.9023 61.5137 27.296C61.0895 27.3666 60.8427 27.2707 61.0716 26.7736C62.231 24.2502 61.6397 21.8857 60.3311 19.6146C59.5078 18.2564 58.5269 16.9964 57.408 15.8598C55.1482 13.4474 52.8961 11.0198 51.3356 8.09012C49.9704 5.53389 50.0218 2.77577 50.3406 0Z" fill="white"/>
<path d="M12.0322 20.5785V6.97974H14.1815C14.3574 6.97974 14.5261 7.04833 14.6505 7.17042C14.7749 7.29252 14.8448 7.45811 14.8448 7.63078V21.2296H12.6955C12.6083 21.2299 12.5219 21.2133 12.4413 21.1807C12.3607 21.1481 12.2874 21.1001 12.2257 21.0396C12.1641 20.9791 12.1152 20.9072 12.082 20.8281C12.0488 20.7489 12.0319 20.6641 12.0322 20.5785Z" fill="white"/>
<path d="M24.1664 11.4616C24.4492 12.1933 24.6163 14.4897 24.6163 15.6252C24.6266 18.7492 23.3669 19.9352 21.814 19.9352C20.2612 19.9352 19.004 18.7921 19.004 15.6706C19.004 14.5452 19.1711 12.1908 19.4514 11.459H18.6004C18.2831 11.4568 17.9713 11.5404 17.6992 11.7006C17.4271 11.8609 17.2052 12.0916 17.0579 12.3675C16.6542 13.1523 16.4229 15.4915 16.4229 16.5236C16.4229 19.857 18.8112 21.1692 21.7575 21.1692C24.7037 21.1692 27.0921 19.9075 27.0921 16.5715C27.0921 15.5394 26.8607 13.1775 26.4571 12.3776C26.3114 12.0996 26.0902 11.8667 25.8179 11.7046C25.5456 11.5425 25.233 11.4575 24.9145 11.459L24.1664 11.4616Z" fill="white"/>
<path d="M21.7499 21.1968C18.3383 21.1968 16.3818 19.491 16.3818 16.5184C16.3818 15.5241 16.6081 13.1496 17.022 12.3471C17.1735 12.0657 17.4009 11.8306 17.6792 11.6673C17.9576 11.504 18.2762 11.4188 18.6005 11.421H19.4978L19.4823 11.4639C19.2124 12.168 19.0247 14.4618 19.0247 15.673C19.0247 18.4034 20.0119 19.9048 21.8039 19.9048C22.8322 19.9048 24.583 19.3497 24.583 15.615C24.583 14.4239 24.4056 12.1604 24.1357 11.4614L24.1203 11.4185H24.8915C25.2197 11.416 25.5422 11.5032 25.8228 11.6703C26.1033 11.8375 26.331 12.0779 26.4803 12.3648C26.8917 13.1799 27.1154 15.5696 27.1154 16.5714C27.1154 18.1485 26.5857 19.3471 25.542 20.1445C24.6319 20.8385 23.3207 21.1968 21.7499 21.1968ZM18.6005 11.4917C18.2881 11.4895 17.9811 11.5714 17.7128 11.7284C17.4445 11.8855 17.2251 12.1117 17.0786 12.3825C16.6698 13.1773 16.4538 15.5367 16.4538 16.5259C16.4538 19.4582 18.3871 21.1413 21.7576 21.1413C23.7372 21.1413 27.0588 20.5483 27.0588 16.5739C27.0588 15.5645 26.8377 13.2026 26.4289 12.3951C26.2839 12.121 26.0646 11.8916 25.7951 11.7321C25.5256 11.5727 25.2164 11.4895 24.9018 11.4917H24.2231C24.5085 12.3042 24.6576 14.5955 24.6576 15.6251C24.6576 19.4102 22.8759 19.9679 21.8142 19.9679C20.7524 19.9679 18.9707 19.4102 18.9707 15.6781C18.9707 14.6687 19.125 12.2992 19.4052 11.4967L18.6005 11.4917Z" fill="white"/>
<path d="M8.94416 12.7987C7.55588 11.3553 4.62762 10.9995 3.08508 11.4587V12.1502C4.62762 12.0013 6.71005 12.3571 7.47618 13.692C7.73074 14.1196 7.89652 14.5925 7.96398 15.0833C8.03144 15.5741 7.99923 16.0732 7.86921 16.5518C7.7392 17.0303 7.51395 17.4789 7.20645 17.8716C6.89896 18.2643 6.5153 18.5933 6.07761 18.8398C5.62999 19.0968 5.13277 19.2596 4.61758 19.3178C4.10239 19.376 3.5805 19.3284 3.08508 19.1779V7.45406C3.07703 7.26272 3.00039 7.08033 2.86869 6.93905C2.73699 6.79778 2.55868 6.7067 2.36523 6.68188H0V20.4043C0 20.7626 0.51418 21.0654 0.879248 21.0654H3.08508V20.2706C4.62762 21.4389 7.39391 21.3102 9.02643 19.7987C10.9906 17.9793 10.9109 14.8427 8.94416 12.7987Z" fill="white"/>
<path d="M46.7905 15.2618H44.9909V10.8029C44.974 10.2381 45.0015 9.67282 45.0732 9.11217C45.1226 8.7434 45.2727 8.39462 45.5077 8.10279C45.7391 7.84387 46.0507 7.66658 46.3946 7.59811C46.5277 7.58345 46.6599 7.56155 46.7905 7.5325V6.47266C46.3592 6.49466 45.9298 6.54439 45.5051 6.62154C44.8736 6.73069 44.2653 6.94308 43.7055 7.24987C43.1903 7.5395 42.781 7.98092 42.5357 8.51159C42.2633 9.13925 42.136 9.81834 42.1629 10.5001V15.2618H40.3633V16.5235H42.1629V20.2607C42.1629 20.6215 42.42 21.0657 42.7902 21.0657H44.9909V16.5235H46.7905V15.2618Z" fill="white"/>
</svg>
